<?xml version="1.0" standalone="no"?>
<svg viewBox="0 0 200 200" xmlns="http://www.w3.org/2000/svg">
  <path fill="#FFD60ACC" d="M48.1,-61.3C63.3,-55.2,77.2,-42.4,84.3,-26.1C91.5,-9.7,91.9,10.1,84.2,25.3C76.4,40.5,60.5,50.9,45.1,60.6C29.7,70.2,14.9,79.1,-1.1,80.6C-17.1,82.2,-34.2,76.4,-47.6,66.1C-60.9,55.8,-70.4,40.9,-75.5,24.7C-80.6,8.4,-81.3,-9.1,-77.6,-26.7C-73.9,-44.3,-65.9,-61.9,-52.2,-68.5C-38.5,-75.1,-19.3,-70.6,-1.4,-68.6C16.5,-66.7,32.9,-67.3,48.1,-61.3Z" transform="translate(100 100)" />
</svg>
