<svg width="86" height="85" viewBox="0 0 86 85" fill="none" xmlns="http://www.w3.org/2000/svg">
<mask id="path-1-inside-1_12_85" fill="white">
<path d="M29.1808 12.5803C28.4553 11.8548 28.4553 10.6785 29.1808 9.953L31.8082 7.32566C32.5337 6.60014 33.71 6.60014 34.4355 7.32566C35.161 8.05118 35.161 9.22748 34.4355 9.953L31.8082 12.5803C31.0826 13.3059 29.9063 13.3059 29.1808 12.5803Z"/>
<path d="M19.5202 18.5517C18.7947 19.2772 18.7947 20.4535 19.5202 21.1791C20.2457 21.9046 21.422 21.9046 22.1475 21.1791L24.7749 18.5517C25.5004 17.8262 25.5004 16.6499 24.7749 15.9244C24.0493 15.1989 22.873 15.1989 22.1475 15.9244L19.5202 18.5517Z"/>
<path d="M30.667 22.2673C29.9415 22.9928 29.9415 24.1691 30.667 24.8947C31.3926 25.6202 32.5689 25.6202 33.2944 24.8947L35.9217 22.2673C36.6472 21.5418 36.6472 20.3655 35.9217 19.64C35.1962 18.9145 34.0199 18.9145 33.2944 19.64L30.667 22.2673Z"/>
<path d="M41.8139 11.1205C41.0884 11.846 41.0884 13.0223 41.8139 13.7478C42.5394 14.4733 43.7157 14.4733 44.4412 13.7478L47.0686 11.1205C47.7941 10.395 47.7941 9.21866 47.0686 8.49314C46.343 7.76762 45.1667 7.76762 44.4412 8.49314L41.8139 11.1205Z"/>
<path d="M52.9607 17.4634C52.2352 16.7379 52.2352 15.5616 52.9607 14.8361L55.5881 12.2088C56.3136 11.4832 57.4899 11.4832 58.2154 12.2088C58.9409 12.9343 58.9409 14.1106 58.2154 14.8361L55.5881 17.4634C54.8626 18.189 53.6863 18.189 52.9607 17.4634Z"/>
<path d="M60.392 22.2673C59.6665 22.9928 59.6665 24.1691 60.392 24.8947C61.1175 25.6202 62.2938 25.6202 63.0193 24.8947L65.6467 22.2673C66.3722 21.5418 66.3722 20.3655 65.6467 19.64C64.9211 18.9145 63.7448 18.9145 63.0193 19.64L60.392 22.2673Z"/>
<path d="M44.0433 26.0094C43.3178 25.2839 43.3178 24.1076 44.0433 23.382L46.6706 20.7547C47.3961 20.0292 48.5724 20.0292 49.298 20.7547C50.0235 21.4802 50.0235 22.6565 49.298 23.382L46.6706 26.0094C45.9451 26.7349 44.7688 26.7349 44.0433 26.0094Z"/>
<path fill-rule="evenodd" clip-rule="evenodd" d="M8.2204 32.7395C4.11713 32.6543 0.769295 29.1985 1.95253 25.2686C2.50949 23.4187 3.26316 21.6078 4.20802 19.8563C6.373 15.8432 9.49936 12.2208 13.4086 9.19598C17.3179 6.17118 21.9335 3.8032 26.9918 2.22724C32.0502 0.651285 37.4524 -0.10178 42.8898 0.0110361C48.3272 0.123852 53.6934 1.10035 58.6821 2.88476C63.6708 4.66917 68.1842 7.22656 71.9646 10.4109C75.745 13.5953 78.7184 17.3442 80.7151 21.4437C81.0321 22.0947 81.3236 22.7524 81.5892 23.416C83.8767 29.1315 78.6119 34.2 72.457 34.0723L8.2204 32.7395ZM5.51038 26.3398C5.99342 24.7355 6.6496 23.1563 7.47814 21.6204C9.37657 18.1014 12.1488 14.8688 15.6824 12.1346C19.2171 9.39968 23.4308 7.22847 28.0971 5.77468C32.7628 4.32105 37.7651 3.62113 42.8127 3.72585C47.8603 3.83058 52.8292 4.7374 57.4307 6.3833C62.0326 8.02939 66.1527 10.3735 69.5709 13.2527C72.988 16.1311 75.6238 19.4759 77.3746 23.0707C77.6527 23.6416 77.9077 24.2173 78.1396 24.7967C78.6964 26.1878 78.3916 27.3962 77.4485 28.4262C76.4169 29.553 74.6127 30.4006 72.534 30.3574L8.29748 29.0247C7.24543 29.0028 6.38097 28.5452 5.89337 27.9911C5.45592 27.494 5.32387 26.9592 5.51038 26.3398Z"/>
<path d="M7.43124 69.6019C3.32708 69.6019 1.89528e-09 72.9289 1.89528e-09 77.0331C1.89528e-09 81.1373 3.32708 84.4643 7.43124 84.4643H61.3077C62.3337 84.4643 63.1655 83.6326 63.1655 82.6065C63.1655 81.5805 62.3337 80.7487 61.3077 80.7487H7.43124C5.37916 80.7487 3.71562 79.0852 3.71562 77.0331C3.71562 74.981 5.37916 73.3175 7.43124 73.3175H78.028C80.0801 73.3175 81.7436 74.981 81.7436 77.0331C81.7436 79.0852 80.0801 80.7487 78.028 80.7487H70.5967C69.5707 80.7487 68.7389 81.5805 68.7389 82.6065C68.7389 83.6326 69.5707 84.4643 70.5967 84.4643H78.028C82.1321 84.4643 85.4592 81.1373 85.4592 77.0331C85.4592 72.9289 82.1321 69.6019 78.028 69.6019H7.43124Z"/>
<path d="M3.10752 38.5023C4.24977 39.5407 5.18653 39.8769 5.945 39.8769C6.70347 39.8769 7.64024 39.5407 8.78249 38.5023C10.365 37.0636 12.153 36.1613 14.1194 36.1613C16.0857 36.1613 17.8737 37.0636 19.4562 38.5023C20.5985 39.5407 21.5353 39.8769 22.2937 39.8769C23.0522 39.8769 23.989 39.5407 25.1312 38.5023C26.7137 37.0636 28.5018 36.1613 30.4681 36.1613C32.4344 36.1613 34.2224 37.0636 35.805 38.5023C36.9472 39.5407 37.884 39.8769 38.6424 39.8769C39.4009 39.8769 40.3377 39.5407 41.4799 38.5023C43.0625 37.0636 44.8505 36.1613 46.8168 36.1613C48.7831 36.1613 50.5711 37.0636 52.1537 38.5023C53.2959 39.5407 54.2327 39.8769 54.9912 39.8769C55.7496 39.8769 56.6864 39.5407 57.8286 38.5023C59.4112 37.0636 61.1992 36.1613 63.1655 36.1613C65.1318 36.1613 66.9199 37.0636 68.5024 38.5023C69.6447 39.5407 70.5814 39.8769 71.3399 39.8769C72.0984 39.8769 73.0351 39.5407 74.1774 38.5023C75.7599 37.0636 77.5479 36.1613 79.5142 36.1613C81.4806 36.1613 83.2686 37.0636 84.8511 38.5023C85.6103 39.1924 85.6663 40.3674 84.9761 41.1266C84.2859 41.8858 83.1109 41.9418 82.3517 41.2516C81.2095 40.2132 80.2727 39.8769 79.5142 39.8769C78.7558 39.8769 77.819 40.2132 76.6768 41.2516C75.0942 42.6903 73.3062 43.5925 71.3399 43.5925C69.3736 43.5925 67.5855 42.6903 66.003 41.2516C64.8608 40.2132 63.924 39.8769 63.1655 39.8769C62.4071 39.8769 61.4703 40.2132 60.328 41.2516C58.7455 42.6903 56.9575 43.5925 54.9912 43.5925C53.0248 43.5925 51.2368 42.6903 49.6543 41.2516C48.512 40.2132 47.5753 39.8769 46.8168 39.8769C46.0583 39.8769 45.1216 40.2132 43.9793 41.2516C42.3968 42.6903 40.6088 43.5925 38.6424 43.5925C36.6761 43.5925 34.8881 42.6903 33.3056 41.2516C32.1633 40.2132 31.2266 39.8769 30.4681 39.8769C29.7096 39.8769 28.7729 40.2132 27.6306 41.2516C26.0481 42.6903 24.26 43.5925 22.2937 43.5925C20.3274 43.5925 18.5394 42.6903 16.9568 41.2516C15.8146 40.2132 14.8778 39.8769 14.1194 39.8769C13.3609 39.8769 12.4241 40.2132 11.2819 41.2516C9.69934 42.6903 7.91132 43.5925 5.945 43.5925C3.97868 43.5925 2.19066 42.6903 0.608125 41.2516C-0.151083 40.5614 -0.207034 39.3864 0.483155 38.6272C1.17334 37.868 2.34831 37.8121 3.10752 38.5023Z"/>
<path d="M7.43125 52.8816C7.43125 51.8555 8.26302 51.0238 9.28906 51.0238H79.8858C80.9118 51.0238 81.7436 50.192 81.7436 49.166C81.7436 48.1399 80.9118 47.3082 79.8858 47.3082H9.28906C6.21094 47.3082 3.71563 49.8035 3.71563 52.8816C3.71563 55.9597 6.21094 58.455 9.28906 58.455H76.1702C77.1962 58.455 78.028 59.2868 78.028 60.3128C78.028 61.3389 77.1962 62.1706 76.1702 62.1706H5.57344C4.5474 62.1706 3.71563 63.0024 3.71563 64.0284C3.71563 65.0545 4.5474 65.8862 5.57344 65.8862H76.1702C79.2483 65.8862 81.7436 63.3909 81.7436 60.3128C81.7436 57.2347 79.2483 54.7394 76.1702 54.7394H9.28906C8.26302 54.7394 7.43125 53.9076 7.43125 52.8816Z"/>
</mask>
<path d="M29.1808 12.5803C28.4553 11.8548 28.4553 10.6785 29.1808 9.953L31.8082 7.32566C32.5337 6.60014 33.71 6.60014 34.4355 7.32566C35.161 8.05118 35.161 9.22748 34.4355 9.953L31.8082 12.5803C31.0826 13.3059 29.9063 13.3059 29.1808 12.5803Z" fill="#404040"/>
<path d="M19.5202 18.5517C18.7947 19.2772 18.7947 20.4535 19.5202 21.1791C20.2457 21.9046 21.422 21.9046 22.1475 21.1791L24.7749 18.5517C25.5004 17.8262 25.5004 16.6499 24.7749 15.9244C24.0493 15.1989 22.873 15.1989 22.1475 15.9244L19.5202 18.5517Z" fill="#404040"/>
<path d="M30.667 22.2673C29.9415 22.9928 29.9415 24.1691 30.667 24.8947C31.3926 25.6202 32.5689 25.6202 33.2944 24.8947L35.9217 22.2673C36.6472 21.5418 36.6472 20.3655 35.9217 19.64C35.1962 18.9145 34.0199 18.9145 33.2944 19.64L30.667 22.2673Z" fill="#404040"/>
<path d="M41.8139 11.1205C41.0884 11.846 41.0884 13.0223 41.8139 13.7478C42.5394 14.4733 43.7157 14.4733 44.4412 13.7478L47.0686 11.1205C47.7941 10.395 47.7941 9.21866 47.0686 8.49314C46.343 7.76762 45.1667 7.76762 44.4412 8.49314L41.8139 11.1205Z" fill="#404040"/>
<path d="M52.9607 17.4634C52.2352 16.7379 52.2352 15.5616 52.9607 14.8361L55.5881 12.2088C56.3136 11.4832 57.4899 11.4832 58.2154 12.2088C58.9409 12.9343 58.9409 14.1106 58.2154 14.8361L55.5881 17.4634C54.8626 18.189 53.6863 18.189 52.9607 17.4634Z" fill="#404040"/>
<path d="M60.392 22.2673C59.6665 22.9928 59.6665 24.1691 60.392 24.8947C61.1175 25.6202 62.2938 25.6202 63.0193 24.8947L65.6467 22.2673C66.3722 21.5418 66.3722 20.3655 65.6467 19.64C64.9211 18.9145 63.7448 18.9145 63.0193 19.64L60.392 22.2673Z" fill="#404040"/>
<path d="M44.0433 26.0094C43.3178 25.2839 43.3178 24.1076 44.0433 23.382L46.6706 20.7547C47.3961 20.0292 48.5724 20.0292 49.298 20.7547C50.0235 21.4802 50.0235 22.6565 49.298 23.382L46.6706 26.0094C45.9451 26.7349 44.7688 26.7349 44.0433 26.0094Z" fill="#404040"/>
<path fill-rule="evenodd" clip-rule="evenodd" d="M8.2204 32.7395C4.11713 32.6543 0.769295 29.1985 1.95253 25.2686C2.50949 23.4187 3.26316 21.6078 4.20802 19.8563C6.373 15.8432 9.49936 12.2208 13.4086 9.19598C17.3179 6.17118 21.9335 3.8032 26.9918 2.22724C32.0502 0.651285 37.4524 -0.10178 42.8898 0.0110361C48.3272 0.123852 53.6934 1.10035 58.6821 2.88476C63.6708 4.66917 68.1842 7.22656 71.9646 10.4109C75.745 13.5953 78.7184 17.3442 80.7151 21.4437C81.0321 22.0947 81.3236 22.7524 81.5892 23.416C83.8767 29.1315 78.6119 34.2 72.457 34.0723L8.2204 32.7395ZM5.51038 26.3398C5.99342 24.7355 6.6496 23.1563 7.47814 21.6204C9.37657 18.1014 12.1488 14.8688 15.6824 12.1346C19.2171 9.39968 23.4308 7.22847 28.0971 5.77468C32.7628 4.32105 37.7651 3.62113 42.8127 3.72585C47.8603 3.83058 52.8292 4.7374 57.4307 6.3833C62.0326 8.02939 66.1527 10.3735 69.5709 13.2527C72.988 16.1311 75.6238 19.4759 77.3746 23.0707C77.6527 23.6416 77.9077 24.2173 78.1396 24.7967C78.6964 26.1878 78.3916 27.3962 77.4485 28.4262C76.4169 29.553 74.6127 30.4006 72.534 30.3574L8.29748 29.0247C7.24543 29.0028 6.38097 28.5452 5.89337 27.9911C5.45592 27.494 5.32387 26.9592 5.51038 26.3398Z" fill="#404040"/>
<path d="M7.43124 69.6019C3.32708 69.6019 1.89528e-09 72.9289 1.89528e-09 77.0331C1.89528e-09 81.1373 3.32708 84.4643 7.43124 84.4643H61.3077C62.3337 84.4643 63.1655 83.6326 63.1655 82.6065C63.1655 81.5805 62.3337 80.7487 61.3077 80.7487H7.43124C5.37916 80.7487 3.71562 79.0852 3.71562 77.0331C3.71562 74.981 5.37916 73.3175 7.43124 73.3175H78.028C80.0801 73.3175 81.7436 74.981 81.7436 77.0331C81.7436 79.0852 80.0801 80.7487 78.028 80.7487H70.5967C69.5707 80.7487 68.7389 81.5805 68.7389 82.6065C68.7389 83.6326 69.5707 84.4643 70.5967 84.4643H78.028C82.1321 84.4643 85.4592 81.1373 85.4592 77.0331C85.4592 72.9289 82.1321 69.6019 78.028 69.6019H7.43124Z" fill="#404040"/>
<path d="M3.10752 38.5023C4.24977 39.5407 5.18653 39.8769 5.945 39.8769C6.70347 39.8769 7.64024 39.5407 8.78249 38.5023C10.365 37.0636 12.153 36.1613 14.1194 36.1613C16.0857 36.1613 17.8737 37.0636 19.4562 38.5023C20.5985 39.5407 21.5353 39.8769 22.2937 39.8769C23.0522 39.8769 23.989 39.5407 25.1312 38.5023C26.7137 37.0636 28.5018 36.1613 30.4681 36.1613C32.4344 36.1613 34.2224 37.0636 35.805 38.5023C36.9472 39.5407 37.884 39.8769 38.6424 39.8769C39.4009 39.8769 40.3377 39.5407 41.4799 38.5023C43.0625 37.0636 44.8505 36.1613 46.8168 36.1613C48.7831 36.1613 50.5711 37.0636 52.1537 38.5023C53.2959 39.5407 54.2327 39.8769 54.9912 39.8769C55.7496 39.8769 56.6864 39.5407 57.8286 38.5023C59.4112 37.0636 61.1992 36.1613 63.1655 36.1613C65.1318 36.1613 66.9199 37.0636 68.5024 38.5023C69.6447 39.5407 70.5814 39.8769 71.3399 39.8769C72.0984 39.8769 73.0351 39.5407 74.1774 38.5023C75.7599 37.0636 77.5479 36.1613 79.5142 36.1613C81.4806 36.1613 83.2686 37.0636 84.8511 38.5023C85.6103 39.1924 85.6663 40.3674 84.9761 41.1266C84.2859 41.8858 83.1109 41.9418 82.3517 41.2516C81.2095 40.2132 80.2727 39.8769 79.5142 39.8769C78.7558 39.8769 77.819 40.2132 76.6768 41.2516C75.0942 42.6903 73.3062 43.5925 71.3399 43.5925C69.3736 43.5925 67.5855 42.6903 66.003 41.2516C64.8608 40.2132 63.924 39.8769 63.1655 39.8769C62.4071 39.8769 61.4703 40.2132 60.328 41.2516C58.7455 42.6903 56.9575 43.5925 54.9912 43.5925C53.0248 43.5925 51.2368 42.6903 49.6543 41.2516C48.512 40.2132 47.5753 39.8769 46.8168 39.8769C46.0583 39.8769 45.1216 40.2132 43.9793 41.2516C42.3968 42.6903 40.6088 43.5925 38.6424 43.5925C36.6761 43.5925 34.8881 42.6903 33.3056 41.2516C32.1633 40.2132 31.2266 39.8769 30.4681 39.8769C29.7096 39.8769 28.7729 40.2132 27.6306 41.2516C26.0481 42.6903 24.26 43.5925 22.2937 43.5925C20.3274 43.5925 18.5394 42.6903 16.9568 41.2516C15.8146 40.2132 14.8778 39.8769 14.1194 39.8769C13.3609 39.8769 12.4241 40.2132 11.2819 41.2516C9.69934 42.6903 7.91132 43.5925 5.945 43.5925C3.97868 43.5925 2.19066 42.6903 0.608125 41.2516C-0.151083 40.5614 -0.207034 39.3864 0.483155 38.6272C1.17334 37.868 2.34831 37.8121 3.10752 38.5023Z" fill="#404040"/>
<path d="M7.43125 52.8816C7.43125 51.8555 8.26302 51.0238 9.28906 51.0238H79.8858C80.9118 51.0238 81.7436 50.192 81.7436 49.166C81.7436 48.1399 80.9118 47.3082 79.8858 47.3082H9.28906C6.21094 47.3082 3.71563 49.8035 3.71563 52.8816C3.71563 55.9597 6.21094 58.455 9.28906 58.455H76.1702C77.1962 58.455 78.028 59.2868 78.028 60.3128C78.028 61.3389 77.1962 62.1706 76.1702 62.1706H5.57344C4.5474 62.1706 3.71563 63.0024 3.71563 64.0284C3.71563 65.0545 4.5474 65.8862 5.57344 65.8862H76.1702C79.2483 65.8862 81.7436 63.3909 81.7436 60.3128C81.7436 57.2347 79.2483 54.7394 76.1702 54.7394H9.28906C8.26302 54.7394 7.43125 53.9076 7.43125 52.8816Z" fill="#404040"/>
<path d="M29.1808 12.5803C28.4553 11.8548 28.4553 10.6785 29.1808 9.953L31.8082 7.32566C32.5337 6.60014 33.71 6.60014 34.4355 7.32566C35.161 8.05118 35.161 9.22748 34.4355 9.953L31.8082 12.5803C31.0826 13.3059 29.9063 13.3059 29.1808 12.5803Z" stroke="white" stroke-width="7.43124" mask="url(#path-1-inside-1_12_85)"/>
<path d="M19.5202 18.5517C18.7947 19.2772 18.7947 20.4535 19.5202 21.1791C20.2457 21.9046 21.422 21.9046 22.1475 21.1791L24.7749 18.5517C25.5004 17.8262 25.5004 16.6499 24.7749 15.9244C24.0493 15.1989 22.873 15.1989 22.1475 15.9244L19.5202 18.5517Z" stroke="white" stroke-width="7.43124" mask="url(#path-1-inside-1_12_85)"/>
<path d="M30.667 22.2673C29.9415 22.9928 29.9415 24.1691 30.667 24.8947C31.3926 25.6202 32.5689 25.6202 33.2944 24.8947L35.9217 22.2673C36.6472 21.5418 36.6472 20.3655 35.9217 19.64C35.1962 18.9145 34.0199 18.9145 33.2944 19.64L30.667 22.2673Z" stroke="white" stroke-width="7.43124" mask="url(#path-1-inside-1_12_85)"/>
<path d="M41.8139 11.1205C41.0884 11.846 41.0884 13.0223 41.8139 13.7478C42.5394 14.4733 43.7157 14.4733 44.4412 13.7478L47.0686 11.1205C47.7941 10.395 47.7941 9.21866 47.0686 8.49314C46.343 7.76762 45.1667 7.76762 44.4412 8.49314L41.8139 11.1205Z" stroke="white" stroke-width="7.43124" mask="url(#path-1-inside-1_12_85)"/>
<path d="M52.9607 17.4634C52.2352 16.7379 52.2352 15.5616 52.9607 14.8361L55.5881 12.2088C56.3136 11.4832 57.4899 11.4832 58.2154 12.2088C58.9409 12.9343 58.9409 14.1106 58.2154 14.8361L55.5881 17.4634C54.8626 18.189 53.6863 18.189 52.9607 17.4634Z" stroke="white" stroke-width="7.43124" mask="url(#path-1-inside-1_12_85)"/>
<path d="M60.392 22.2673C59.6665 22.9928 59.6665 24.1691 60.392 24.8947C61.1175 25.6202 62.2938 25.6202 63.0193 24.8947L65.6467 22.2673C66.3722 21.5418 66.3722 20.3655 65.6467 19.64C64.9211 18.9145 63.7448 18.9145 63.0193 19.64L60.392 22.2673Z" stroke="white" stroke-width="7.43124" mask="url(#path-1-inside-1_12_85)"/>
<path d="M44.0433 26.0094C43.3178 25.2839 43.3178 24.1076 44.0433 23.382L46.6706 20.7547C47.3961 20.0292 48.5724 20.0292 49.298 20.7547C50.0235 21.4802 50.0235 22.6565 49.298 23.382L46.6706 26.0094C45.9451 26.7349 44.7688 26.7349 44.0433 26.0094Z" stroke="white" stroke-width="7.43124" mask="url(#path-1-inside-1_12_85)"/>
<path fill-rule="evenodd" clip-rule="evenodd" d="M8.2204 32.7395C4.11713 32.6543 0.769295 29.1985 1.95253 25.2686C2.50949 23.4187 3.26316 21.6078 4.20802 19.8563C6.373 15.8432 9.49936 12.2208 13.4086 9.19598C17.3179 6.17118 21.9335 3.8032 26.9918 2.22724C32.0502 0.651285 37.4524 -0.10178 42.8898 0.0110361C48.3272 0.123852 53.6934 1.10035 58.6821 2.88476C63.6708 4.66917 68.1842 7.22656 71.9646 10.4109C75.745 13.5953 78.7184 17.3442 80.7151 21.4437C81.0321 22.0947 81.3236 22.7524 81.5892 23.416C83.8767 29.1315 78.6119 34.2 72.457 34.0723L8.2204 32.7395ZM5.51038 26.3398C5.99342 24.7355 6.6496 23.1563 7.47814 21.6204C9.37657 18.1014 12.1488 14.8688 15.6824 12.1346C19.2171 9.39968 23.4308 7.22847 28.0971 5.77468C32.7628 4.32105 37.7651 3.62113 42.8127 3.72585C47.8603 3.83058 52.8292 4.7374 57.4307 6.3833C62.0326 8.02939 66.1527 10.3735 69.5709 13.2527C72.988 16.1311 75.6238 19.4759 77.3746 23.0707C77.6527 23.6416 77.9077 24.2173 78.1396 24.7967C78.6964 26.1878 78.3916 27.3962 77.4485 28.4262C76.4169 29.553 74.6127 30.4006 72.534 30.3574L8.29748 29.0247C7.24543 29.0028 6.38097 28.5452 5.89337 27.9911C5.45592 27.494 5.32387 26.9592 5.51038 26.3398Z" stroke="white" stroke-width="7.43124" mask="url(#path-1-inside-1_12_85)"/>
<path d="M7.43124 69.6019C3.32708 69.6019 1.89528e-09 72.9289 1.89528e-09 77.0331C1.89528e-09 81.1373 3.32708 84.4643 7.43124 84.4643H61.3077C62.3337 84.4643 63.1655 83.6326 63.1655 82.6065C63.1655 81.5805 62.3337 80.7487 61.3077 80.7487H7.43124C5.37916 80.7487 3.71562 79.0852 3.71562 77.0331C3.71562 74.981 5.37916 73.3175 7.43124 73.3175H78.028C80.0801 73.3175 81.7436 74.981 81.7436 77.0331C81.7436 79.0852 80.0801 80.7487 78.028 80.7487H70.5967C69.5707 80.7487 68.7389 81.5805 68.7389 82.6065C68.7389 83.6326 69.5707 84.4643 70.5967 84.4643H78.028C82.1321 84.4643 85.4592 81.1373 85.4592 77.0331C85.4592 72.9289 82.1321 69.6019 78.028 69.6019H7.43124Z" stroke="white" stroke-width="7.43124" mask="url(#path-1-inside-1_12_85)"/>
<path d="M3.10752 38.5023C4.24977 39.5407 5.18653 39.8769 5.945 39.8769C6.70347 39.8769 7.64024 39.5407 8.78249 38.5023C10.365 37.0636 12.153 36.1613 14.1194 36.1613C16.0857 36.1613 17.8737 37.0636 19.4562 38.5023C20.5985 39.5407 21.5353 39.8769 22.2937 39.8769C23.0522 39.8769 23.989 39.5407 25.1312 38.5023C26.7137 37.0636 28.5018 36.1613 30.4681 36.1613C32.4344 36.1613 34.2224 37.0636 35.805 38.5023C36.9472 39.5407 37.884 39.8769 38.6424 39.8769C39.4009 39.8769 40.3377 39.5407 41.4799 38.5023C43.0625 37.0636 44.8505 36.1613 46.8168 36.1613C48.7831 36.1613 50.5711 37.0636 52.1537 38.5023C53.2959 39.5407 54.2327 39.8769 54.9912 39.8769C55.7496 39.8769 56.6864 39.5407 57.8286 38.5023C59.4112 37.0636 61.1992 36.1613 63.1655 36.1613C65.1318 36.1613 66.9199 37.0636 68.5024 38.5023C69.6447 39.5407 70.5814 39.8769 71.3399 39.8769C72.0984 39.8769 73.0351 39.5407 74.1774 38.5023C75.7599 37.0636 77.5479 36.1613 79.5142 36.1613C81.4806 36.1613 83.2686 37.0636 84.8511 38.5023C85.6103 39.1924 85.6663 40.3674 84.9761 41.1266C84.2859 41.8858 83.1109 41.9418 82.3517 41.2516C81.2095 40.2132 80.2727 39.8769 79.5142 39.8769C78.7558 39.8769 77.819 40.2132 76.6768 41.2516C75.0942 42.6903 73.3062 43.5925 71.3399 43.5925C69.3736 43.5925 67.5855 42.6903 66.003 41.2516C64.8608 40.2132 63.924 39.8769 63.1655 39.8769C62.4071 39.8769 61.4703 40.2132 60.328 41.2516C58.7455 42.6903 56.9575 43.5925 54.9912 43.5925C53.0248 43.5925 51.2368 42.6903 49.6543 41.2516C48.512 40.2132 47.5753 39.8769 46.8168 39.8769C46.0583 39.8769 45.1216 40.2132 43.9793 41.2516C42.3968 42.6903 40.6088 43.5925 38.6424 43.5925C36.6761 43.5925 34.8881 42.6903 33.3056 41.2516C32.1633 40.2132 31.2266 39.8769 30.4681 39.8769C29.7096 39.8769 28.7729 40.2132 27.6306 41.2516C26.0481 42.6903 24.26 43.5925 22.2937 43.5925C20.3274 43.5925 18.5394 42.6903 16.9568 41.2516C15.8146 40.2132 14.8778 39.8769 14.1194 39.8769C13.3609 39.8769 12.4241 40.2132 11.2819 41.2516C9.69934 42.6903 7.91132 43.5925 5.945 43.5925C3.97868 43.5925 2.19066 42.6903 0.608125 41.2516C-0.151083 40.5614 -0.207034 39.3864 0.483155 38.6272C1.17334 37.868 2.34831 37.8121 3.10752 38.5023Z" stroke="white" stroke-width="7.43124" mask="url(#path-1-inside-1_12_85)"/>
<path d="M7.43125 52.8816C7.43125 51.8555 8.26302 51.0238 9.28906 51.0238H79.8858C80.9118 51.0238 81.7436 50.192 81.7436 49.166C81.7436 48.1399 80.9118 47.3082 79.8858 47.3082H9.28906C6.21094 47.3082 3.71563 49.8035 3.71563 52.8816C3.71563 55.9597 6.21094 58.455 9.28906 58.455H76.1702C77.1962 58.455 78.028 59.2868 78.028 60.3128C78.028 61.3389 77.1962 62.1706 76.1702 62.1706H5.57344C4.5474 62.1706 3.71563 63.0024 3.71563 64.0284C3.71563 65.0545 4.5474 65.8862 5.57344 65.8862H76.1702C79.2483 65.8862 81.7436 63.3909 81.7436 60.3128C81.7436 57.2347 79.2483 54.7394 76.1702 54.7394H9.28906C8.26302 54.7394 7.43125 53.9076 7.43125 52.8816Z" stroke="white" stroke-width="7.43124" mask="url(#path-1-inside-1_12_85)"/>
</svg>
