<svg width="41" height="35" viewBox="0 0 41 35" fill="none" xmlns="http://www.w3.org/2000/svg">
<path d="M29.1 19.3433C30.6 19.3433 31.92 18.6309 32.6 17.5535L39.76 6.276C40.5 5.12913 39.54 3.70424 38.02 3.70424H8.42L6.54 0.228882H0V3.70424H4L11.2 16.8932L8.5 21.1331C7.04 23.4616 8.96 26.294 12 26.294H36V22.8187H12L14.2 19.3433H29.1ZM10.32 7.17959H34.62L29.1 15.868H15.06L10.32 7.17959ZM12 28.0317C9.8 28.0317 8.02 29.5956 8.02 31.5071C8.02 33.4185 9.8 34.9824 12 34.9824C14.2 34.9824 16 33.4185 16 31.5071C16 29.5956 14.2 28.0317 12 28.0317ZM32 28.0317C29.8 28.0317 28.02 29.5956 28.02 31.5071C28.02 33.4185 29.8 34.9824 32 34.9824C34.2 34.9824 36 33.4185 36 31.5071C36 29.5956 34.2 28.0317 32 28.0317Z" fill="white"/>
</svg>
