<svg width="67" height="105" viewBox="0 0 67 105" fill="none" xmlns="http://www.w3.org/2000/svg">
<path fill-rule="evenodd" clip-rule="evenodd" d="M33.4499 0.289062C30.3718 0.289062 27.8765 2.78437 27.8765 5.86249V15.1839C26.1661 15.492 24.4875 15.942 22.8635 16.5306C19.5013 17.7492 16.4317 19.5405 13.8352 21.8125C11.2382 24.0848 9.16279 26.7961 7.74125 29.799C6.86187 31.6566 6.24466 33.6008 5.90166 35.5874H3.72496C1.67288 35.5874 0.00933838 37.251 0.00933838 39.3031V43.0187C0.00933838 45.0708 1.67288 46.7343 3.72496 46.7343H5.5827C5.58274 46.7725 5.58395 46.811 5.58635 46.8497L8.83742 99.0991C9.02024 102.037 11.4564 104.326 14.4001 104.326H44.5968C45.6228 104.326 46.4546 103.495 46.4546 102.469C46.4546 101.443 45.6228 100.611 44.5968 100.611H14.4001C13.4189 100.611 12.6068 99.8477 12.5459 98.8683L9.99556 57.8811H50.1702C51.1962 57.8811 52.028 57.0494 52.028 56.0233C52.028 54.9973 51.1962 54.1655 50.1702 54.1655H9.76437L9.30198 46.7343H57.5973L53.8899 102.345C53.8217 103.369 54.5963 104.254 55.62 104.322C56.6438 104.391 57.5291 103.616 57.5973 102.592L61.3129 46.8579C61.3157 46.8164 61.3171 46.7752 61.3171 46.7343H63.1749C65.2269 46.7343 66.8905 45.0708 66.8905 43.0187V39.3031C66.8905 37.251 65.2269 35.5874 63.1749 35.5874H60.9981C60.6551 33.6009 60.0379 31.6566 59.1586 29.799C57.737 26.7961 55.6617 24.0848 53.0647 21.8125C50.4681 19.5405 47.3985 17.7492 44.0363 16.5306C42.4124 15.9421 40.7337 15.492 39.0233 15.1839V5.86249C39.0233 2.78437 36.528 0.289062 33.4499 0.289062ZM35.3077 14.7418V5.86249C35.3077 4.83645 34.4759 4.00468 33.4499 4.00468C32.4239 4.00468 31.5921 4.83645 31.5921 5.86249V14.7418C32.2098 14.7054 32.8294 14.6871 33.4499 14.6871C34.0704 14.6871 34.69 14.7054 35.3077 14.7418ZM31.5921 18.4647C32.2091 18.4235 32.8288 18.4027 33.4499 18.4027C34.071 18.4027 34.6907 18.4235 35.3077 18.4647V35.5874H31.5921V18.4647ZM27.8765 18.9676C26.5989 19.2302 25.3457 19.5831 24.1296 20.0239C21.1806 21.0927 18.5157 22.6541 16.2819 24.6087C14.0485 26.563 12.2922 28.8694 11.0996 31.3888C10.4567 32.7468 9.98343 34.1542 9.68375 35.5874L27.8765 35.5874V18.9676ZM39.0233 35.5874V18.9676C40.3009 19.2302 41.5542 19.5831 42.7702 20.0239C45.7192 21.0927 48.3841 22.6541 50.6179 24.6087C52.8513 26.563 54.6076 28.8694 55.8002 31.3888C56.4431 32.7468 56.9164 34.1542 57.2161 35.5874L39.0233 35.5874ZM3.72496 39.3031H63.1749V43.0187H3.72496V39.3031Z" fill="white"/>
<path fill-rule="evenodd" clip-rule="evenodd" d="M39.0233 67.1702C39.0233 70.2483 36.528 72.7436 33.4499 72.7436C30.3718 72.7436 27.8765 70.2483 27.8765 67.1702C27.8765 64.0921 30.3718 61.5968 33.4499 61.5968C36.528 61.5968 39.0233 64.0921 39.0233 67.1702ZM35.3077 67.1702C35.3077 68.1962 34.4759 69.028 33.4499 69.028C32.4239 69.028 31.5921 68.1962 31.5921 67.1702C31.5921 66.1442 32.4239 65.3124 33.4499 65.3124C34.4759 65.3124 35.3077 66.1442 35.3077 67.1702Z" fill="white"/>
<path fill-rule="evenodd" clip-rule="evenodd" d="M32.2609 80.6815C32.2609 83.7596 29.7656 86.2549 26.6875 86.2549C23.6093 86.2549 21.114 83.7596 21.114 80.6815C21.114 77.6034 23.6093 75.1081 26.6875 75.1081C29.7656 75.1081 32.2609 77.6034 32.2609 80.6815ZM28.5453 80.6815C28.5453 81.7075 27.7135 82.5393 26.6875 82.5393C25.6614 82.5393 24.8296 81.7075 24.8296 80.6815C24.8296 79.6555 25.6614 78.8237 26.6875 78.8237C27.7135 78.8237 28.5453 79.6555 28.5453 80.6815Z" fill="white"/>
<path fill-rule="evenodd" clip-rule="evenodd" d="M25.4985 93.1795C25.4985 96.2576 23.0032 98.7529 19.9251 98.7529C16.8469 98.7529 14.3516 96.2576 14.3516 93.1795C14.3516 90.1014 16.8469 87.6061 19.9251 87.6061C23.0032 87.6061 25.4985 90.1014 25.4985 93.1795ZM21.7829 93.1795C21.7829 94.2056 20.9511 95.0373 19.9251 95.0373C18.899 95.0373 18.0672 94.2056 18.0672 93.1795C18.0672 92.1535 18.899 91.3217 19.9251 91.3217C20.9511 91.3217 21.7829 92.1535 21.7829 93.1795Z" fill="white"/>
<path fill-rule="evenodd" clip-rule="evenodd" d="M39.0098 93.1795C39.0098 96.2576 36.5145 98.7529 33.4364 98.7529C30.3583 98.7529 27.863 96.2576 27.863 93.1795C27.863 90.1014 30.3583 87.6061 33.4364 87.6061C36.5145 87.6061 39.0098 90.1014 39.0098 93.1795ZM35.2942 93.1795C35.2942 94.2056 34.4625 95.0373 33.4364 95.0373C32.4104 95.0373 31.5786 94.2056 31.5786 93.1795C31.5786 92.1535 32.4104 91.3217 33.4364 91.3217C34.4625 91.3217 35.2942 92.1535 35.2942 93.1795Z" fill="white"/>
<path fill-rule="evenodd" clip-rule="evenodd" d="M46.9477 98.7529C50.0259 98.7529 52.5212 96.2576 52.5212 93.1795C52.5212 90.1014 50.0259 87.6061 46.9477 87.6061C43.8696 87.6061 41.3743 90.1014 41.3743 93.1795C41.3743 96.2576 43.8696 98.7529 46.9477 98.7529ZM46.9477 95.0373C47.9738 95.0373 48.8055 94.2056 48.8055 93.1795C48.8055 92.1535 47.9738 91.3217 46.9477 91.3217C45.9217 91.3217 45.0899 92.1535 45.0899 93.1795C45.0899 94.2056 45.9217 95.0373 46.9477 95.0373Z" fill="white"/>
<path fill-rule="evenodd" clip-rule="evenodd" d="M40.1988 86.2549C43.2769 86.2549 45.7722 83.7596 45.7722 80.6815C45.7722 77.6034 43.2769 75.1081 40.1988 75.1081C37.1207 75.1081 34.6254 77.6034 34.6254 80.6815C34.6254 83.7596 37.1207 86.2549 40.1988 86.2549ZM40.1988 82.5393C41.2248 82.5393 42.0566 81.7075 42.0566 80.6815C42.0566 79.6555 41.2248 78.8237 40.1988 78.8237C39.1728 78.8237 38.341 79.6555 38.341 80.6815C38.341 81.7075 39.1728 82.5393 40.1988 82.5393Z" fill="white"/>
</svg>
