<svg width="90" height="91" viewBox="0 0 90 91" fill="none" xmlns="http://www.w3.org/2000/svg">
<path fill-rule="evenodd" clip-rule="evenodd" d="M0.304511 82.7282C-1.167 87.071 2.94273 91.2337 7.30398 89.818L69.6829 69.5686C70.6588 69.2518 71.1931 68.2039 70.8763 67.228C70.5595 66.2521 69.5115 65.7177 68.5356 66.0345L6.15675 86.2839C4.703 86.7558 3.33309 85.3683 3.82359 83.9207L26.4589 17.1189C26.9008 15.8147 28.5584 15.4277 29.5321 16.4014L75.2239 62.0932C77.4004 64.2697 80.9293 64.2697 83.1059 62.0932L87.7037 57.4953C89.8803 55.3188 89.8803 51.7899 87.7037 49.6133L39.2358 1.14537C37.7086 -0.381788 35.2326 -0.381788 33.7055 1.14537L28.5886 6.26223C27.8631 6.98775 27.8631 8.16405 28.5886 8.88957C29.3141 9.61509 30.4904 9.61509 31.2159 8.88957L36.3328 3.7727C36.4089 3.69659 36.5323 3.69659 36.6084 3.7727L85.0764 52.2407C85.8019 52.9662 85.8019 54.1425 85.0764 54.868L80.4785 59.4658C79.753 60.1914 78.5767 60.1914 77.8512 59.4658L32.1595 13.7741C29.2383 10.8529 24.2656 12.0139 22.9398 15.9265L0.304511 82.7282ZM22.0203 62.75C23.4713 61.299 25.8239 61.299 27.2749 62.75C28.726 64.2011 28.726 66.5536 27.2749 68.0047C25.8239 69.4557 23.4713 69.4557 22.0203 68.0047C20.5692 66.5536 20.5692 64.2011 22.0203 62.75ZM45.6663 54.868C47.1173 53.417 49.4699 53.417 50.921 54.868C52.372 56.319 52.372 58.6716 50.921 60.1227C49.4699 61.5737 47.1173 61.5737 45.6663 60.1227C44.2153 58.6716 44.2153 56.319 45.6663 54.868ZM29.9023 39.104C31.3533 37.6529 33.7059 37.6529 35.157 39.104C36.608 40.555 36.608 42.9076 35.157 44.3586C33.7059 45.8097 31.3533 45.8097 29.9023 44.3586C28.4512 42.9076 28.4512 40.555 29.9023 39.104ZM27.2749 36.4766C30.177 33.5745 34.8822 33.5745 37.7843 36.4766C40.6864 39.3787 40.6864 44.0839 37.7843 46.986C34.8822 49.8881 30.177 49.8881 27.2749 46.986C24.3729 44.0839 24.3729 39.3787 27.2749 36.4766ZM53.5483 52.2407C50.6463 49.3386 45.9411 49.3386 43.039 52.2407C40.1369 55.1427 40.1369 59.8479 43.039 62.75C45.9411 65.6521 50.6463 65.6521 53.5483 62.75C56.4504 59.8479 56.4504 55.1427 53.5483 52.2407ZM29.9023 60.1227C27.0002 57.2206 22.295 57.2206 19.3929 60.1227C16.4908 63.0248 16.4908 67.7299 19.3929 70.632C22.295 73.5341 27.0002 73.5341 29.9023 70.632C32.8044 67.7299 32.8044 63.0248 29.9023 60.1227Z" fill="white"/>
</svg>
