<svg width="577" height="255" viewBox="0 0 577 255" fill="none" xmlns="http://www.w3.org/2000/svg">
<g clip-path="url(#clip0_12_21)">
<path d="M172.234 209.424C170.255 224.93 162.977 239.117 155.214 252.783C154.957 253.249 154.693 253.707 154.422 254.172H73.7312C72.0993 253.749 70.4883 253.283 68.8842 252.783C59.7704 250.008 51.1662 245.776 43.4061 240.249C13.7199 218.861 2.29663 178.446 7.45627 142.232C10.6645 119.733 20.539 96.7621 39.7673 84.6445C49.9197 78.2351 62.9607 76.1519 74.6477 78.5337C74.9536 78.5893 75.2591 78.6587 75.5714 78.7212C85.6265 80.985 94.5844 86.6097 99.6816 95.6719C108.848 111.956 103.39 132.129 98.8831 150.253C94.3901 168.377 91.9525 190.071 104.994 203.438C100.688 190.765 104.938 175.648 115.223 167.079C122.993 160.614 133.812 158.19 143.68 160.197C144.624 160.398 145.555 160.627 146.471 160.905C148.687 161.554 150.822 162.448 152.839 163.572C168.22 172.162 174.449 191.946 172.234 209.424Z" fill="#11A617"/>
<path d="M124.389 252.783C126.625 253.304 128.868 253.762 131.125 254.172H118.924C117.326 253.742 115.736 253.283 114.16 252.783C110.695 251.7 107.283 250.457 103.924 249.054C90.4527 243.402 78.0435 234.916 68.655 223.625C64.0634 218.154 60.3139 212.029 57.5304 205.452C54.5122 198.018 52.594 190.184 51.8364 182.196C50.135 165.808 51.871 148.968 55.1139 132.872C58.4605 116.189 63.8626 99.9846 71.1967 84.6308C72.0786 82.7906 72.9906 80.962 73.9326 79.1449C73.9974 78.9953 74.0955 78.8625 74.2194 78.7566C74.3434 78.6507 74.4899 78.5745 74.6477 78.5338C74.9683 78.4717 75.3004 78.5391 75.5713 78.7213C75.8965 78.9079 76.1377 79.2122 76.2449 79.5715C76.3522 79.9307 76.3174 80.3174 76.1478 80.6517C68.586 95.3982 62.854 111.013 59.079 127.15C55.3848 142.892 53.2877 159.364 54.0028 175.551C54.6833 190.675 58.6348 205.549 67.5995 217.917C75.7866 229.208 87.0916 238.11 99.5982 244.173C107.514 247.96 115.83 250.848 124.389 252.783Z" fill="white"/>
<path d="M151.166 254.172H147.568C147.166 253.714 146.777 253.249 146.395 252.783C138.201 242.828 132.651 230.968 130.256 218.299C127.349 202.488 129.611 186.162 136.708 171.738C138.688 167.694 141.021 163.831 143.68 160.197C144.624 160.398 145.555 160.627 146.471 160.905C139.477 170.171 134.773 180.96 132.742 192.39C130.931 203.101 131.533 214.081 134.505 224.529C137.478 234.977 142.745 244.63 149.923 252.783C150.325 253.249 150.742 253.714 151.166 254.172Z" fill="white"/>
<path d="M475.207 242.362C475.729 246.455 477.65 250.199 479.699 253.806C479.767 253.928 479.836 254.049 479.908 254.172H501.204C501.634 254.06 502.06 253.938 502.483 253.806C504.888 253.073 507.159 251.956 509.207 250.498C517.042 244.853 520.057 234.187 518.695 224.629C517.848 218.691 515.242 212.629 510.167 209.431C507.412 207.752 504.124 207.176 500.962 207.818C500.881 207.833 500.801 207.851 500.718 207.867C499.402 208.122 498.154 208.652 497.058 209.423C495.961 210.194 495.04 211.189 494.355 212.341C491.936 216.639 493.376 221.963 494.566 226.746C495.751 231.529 496.395 237.255 492.953 240.783C493.457 239.307 493.56 237.724 493.25 236.196C492.94 234.668 492.228 233.25 491.189 232.088C490.149 230.926 488.819 230.062 487.334 229.584C485.85 229.106 484.265 229.033 482.743 229.37C482.494 229.424 482.248 229.484 482.006 229.557C481.422 229.729 480.858 229.965 480.326 230.261C476.266 232.528 474.622 237.749 475.207 242.362Z" fill="#11A617"/>
<path d="M487.834 253.806C487.244 253.943 486.652 254.064 486.057 254.172H489.277C489.698 254.059 490.118 253.938 490.534 253.806C491.448 253.52 492.349 253.192 493.235 252.822C496.83 251.362 500.023 249.06 502.543 246.11C503.755 244.666 504.745 243.05 505.479 241.314C506.276 239.352 506.782 237.284 506.982 235.176C507.348 230.818 507.056 226.43 506.117 222.159C505.234 217.756 503.808 213.479 501.873 209.427C501.64 208.941 501.399 208.459 501.151 207.979C501.133 207.94 501.108 207.905 501.075 207.877C501.042 207.849 501.004 207.829 500.962 207.818C500.877 207.802 500.79 207.819 500.718 207.867C500.632 207.917 500.569 207.997 500.54 208.092C500.512 208.187 500.521 208.289 500.566 208.377C502.562 212.269 504.074 216.39 505.071 220.649C506.097 224.826 506.548 229.123 506.41 233.423C506.337 237.421 505.089 241.309 502.822 244.604C500.617 247.571 497.717 249.95 494.377 251.533C492.288 252.533 490.093 253.295 487.834 253.806Z" fill="white"/>
<path d="M480.767 254.172H481.717C481.823 254.051 481.926 253.928 482.026 253.806C484.189 251.178 485.654 248.048 486.286 244.705C487.053 240.532 486.456 236.223 484.583 232.416C484.061 231.349 483.445 230.33 482.743 229.37C482.494 229.424 482.248 229.484 482.006 229.557C483.852 232.003 485.094 234.85 485.63 237.867C486.108 240.693 485.949 243.591 485.164 246.349C484.38 249.106 482.99 251.654 481.095 253.806C480.989 253.928 480.879 254.051 480.767 254.172Z" fill="white"/>
<path d="M283.257 148.398H216.606L215.9 127.906C215.869 127.017 216.032 126.133 216.376 125.313C216.719 124.494 217.237 123.758 217.892 123.158C218.548 122.557 219.325 122.106 220.172 121.835C221.018 121.564 221.914 121.479 222.796 121.587L261.582 126.337H261.587C267.337 126.352 272.847 128.646 276.909 132.717C280.97 136.787 283.253 142.301 283.257 148.051V148.398Z" fill="#FF686B"/>
<path d="M253.551 75.7075H207.065C206.447 75.7074 205.835 75.829 205.263 76.0655C204.692 76.302 204.173 76.6488 203.736 77.0859C203.299 77.5231 202.952 78.0421 202.716 78.6133C202.479 79.1845 202.358 79.7967 202.358 80.4149V126.901C202.358 127.519 202.479 128.131 202.716 128.702C202.952 129.273 203.299 129.792 203.736 130.23C204.173 130.667 204.692 131.013 205.263 131.25C205.835 131.486 206.447 131.608 207.065 131.608H253.551C254.169 131.608 254.781 131.486 255.352 131.25C255.924 131.013 256.443 130.667 256.88 130.23C257.317 129.792 257.664 129.273 257.9 128.702C258.137 128.131 258.258 127.519 258.258 126.901V80.4149C258.258 79.7967 258.137 79.1845 257.9 78.6133C257.664 78.0421 257.317 77.5231 256.88 77.0859C256.443 76.6487 255.924 76.302 255.352 76.0655C254.781 75.829 254.169 75.7073 253.551 75.7075Z" fill="#CCCCCC"/>
<path d="M243.082 110.468L221.134 114.742C219.832 114.994 218.483 114.719 217.383 113.978C216.284 113.237 215.523 112.09 215.268 110.788L213.581 102.125C213.329 100.823 213.604 99.4741 214.345 98.3745C215.086 97.2749 216.233 96.5142 217.534 96.2593L239.482 91.9852C240.784 91.7332 242.133 92.0079 243.232 92.749C244.332 93.4902 245.093 94.6372 245.348 95.9386L247.035 104.602C247.287 105.904 247.012 107.253 246.271 108.352C245.53 109.452 244.383 110.213 243.082 110.468Z" fill="#404040"/>
<path d="M238.69 100.232L221.941 103.494C221.634 103.554 221.317 103.489 221.058 103.315C220.799 103.141 220.62 102.87 220.561 102.564C220.501 102.258 220.565 101.94 220.74 101.681C220.914 101.422 221.184 101.244 221.491 101.184L238.24 97.9221C238.547 97.8624 238.864 97.9269 239.123 98.1014C239.382 98.2758 239.561 98.5459 239.621 98.8523C239.68 99.1587 239.616 99.4762 239.441 99.735C239.267 99.9938 238.997 100.173 238.69 100.232Z" fill="white"/>
<path d="M235.435 105.063L226.771 106.75C226.465 106.81 226.147 106.745 225.888 106.571C225.629 106.396 225.451 106.126 225.391 105.82C225.331 105.513 225.396 105.196 225.57 104.937C225.745 104.678 226.015 104.499 226.321 104.44L234.985 102.752C235.136 102.723 235.293 102.723 235.444 102.754C235.595 102.785 235.739 102.845 235.868 102.932C235.996 103.018 236.106 103.129 236.191 103.258C236.276 103.387 236.335 103.531 236.365 103.683C236.394 103.834 236.394 103.99 236.363 104.142C236.332 104.293 236.272 104.437 236.186 104.565C236.099 104.693 235.988 104.803 235.86 104.889C235.731 104.974 235.586 105.033 235.435 105.063Z" fill="white"/>
<path d="M258.258 80.4149V86.5934H202.358V80.4149C202.358 79.7967 202.479 79.1845 202.716 78.6133C202.952 78.0421 203.299 77.5231 203.736 77.0859C204.173 76.6488 204.692 76.302 205.263 76.0655C205.835 75.829 206.447 75.7074 207.065 75.7075H253.551C254.169 75.7074 254.781 75.829 255.352 76.0655C255.924 76.302 256.443 76.6488 256.88 77.0859C257.317 77.5231 257.664 78.0421 257.9 78.6133C258.137 79.1845 258.258 79.7967 258.258 80.4149Z" fill="#B3B3B3"/>
<path d="M369.886 88.5282C369.563 87.4864 369.016 86.5281 368.283 85.7207C367.55 84.9133 366.648 84.2765 365.642 83.8551C364.637 83.4337 363.551 83.238 362.461 83.2818C361.371 83.3255 360.304 83.6077 359.335 84.1083L295.382 61.163L292.565 77.1396L356.315 94.6703C357.264 96.2422 358.757 97.4114 360.51 97.9563C362.263 98.5013 364.156 98.3841 365.829 97.627C367.501 96.8699 368.838 95.5254 369.586 93.8485C370.334 92.1715 370.441 90.2785 369.886 88.5282Z" fill="#FFB8B8"/>
<path opacity="0.2" d="M369.886 88.5282C369.563 87.4864 369.016 86.5281 368.283 85.7207C367.55 84.9133 366.648 84.2765 365.642 83.8551C364.637 83.4337 363.551 83.238 362.461 83.2818C361.371 83.3255 360.304 83.6077 359.335 84.1083L295.382 61.163L292.565 77.1396L356.315 94.6703C357.264 96.2422 358.757 97.4114 360.51 97.9563C362.263 98.5013 364.156 98.3841 365.829 97.627C367.501 96.8699 368.838 95.5254 369.586 93.8485C370.334 92.1715 370.441 90.2785 369.886 88.5282Z" fill="black"/>
<path d="M306.734 64.0742L300.694 79.8515C300.523 80.3004 300.256 80.707 299.913 81.0436C299.57 81.3802 299.158 81.6388 298.706 81.802C298.254 81.9652 297.772 82.0289 297.293 81.989C296.814 81.9491 296.349 81.8064 295.93 81.5707L281.253 73.3098C278.961 72.4174 277.117 70.6529 276.124 68.403C275.132 66.153 275.072 63.6013 275.958 61.3072C276.844 59.0132 278.603 57.164 280.85 56.165C283.097 55.1661 285.649 55.0988 287.945 55.9782L304.335 59.6132C304.804 59.7174 305.245 59.9215 305.629 60.2117C306.012 60.5018 306.328 60.8711 306.556 61.2945C306.783 61.7178 306.917 62.1853 306.948 62.6649C306.978 63.1446 306.905 63.6253 306.734 64.0742Z" fill="#FF686B"/>
<path d="M419.883 155.565C404.827 155.565 392.557 166.511 391.962 180.217H447.805C447.21 166.511 434.94 155.565 419.883 155.565Z" fill="#404040"/>
<path d="M408.163 157.927C407.379 96.056 372.142 101.748 372.142 101.748C372.142 101.748 372.801 121.007 373.118 121.605C395.572 164.089 358.514 213.896 311.343 204.733C310.453 204.56 309.599 204.385 308.779 204.207C302.803 202.959 297.525 199.482 294.021 194.481C290.517 189.481 289.05 183.334 289.917 177.29C294.564 139.975 271.452 140.635 271.452 140.635H237.657L220.107 124.84C219.488 124.283 218.741 123.885 217.932 123.683C217.124 123.481 216.278 123.48 215.469 123.68C214.66 123.88 213.912 124.275 213.291 124.831C212.67 125.387 212.195 126.087 211.907 126.869L209.649 132.997C209.649 132.997 176.317 136.469 179.095 169.106H189.4C189.375 170.034 189.412 170.962 189.511 171.884L266.418 171.259C270.926 171.222 274.905 174.875 274.924 179.383C274.929 180.481 274.712 181.568 274.287 182.58C273.861 183.592 273.236 184.507 272.449 185.272C271.662 186.037 270.728 186.635 269.705 187.03C268.681 187.426 267.588 187.611 266.491 187.574L254.092 187.161C250.272 204.174 259.647 215.632 269.976 222.837C279.702 229.522 291.242 233.066 303.043 232.993H336.727C380.475 232.993 388.114 196.189 388.114 196.189C411.029 186.467 408.163 157.927 408.163 157.927Z" fill="#404040"/>
<path d="M417.8 253.131C439.373 253.131 456.861 235.642 456.861 214.07C456.861 192.497 439.373 175.009 417.8 175.009C396.227 175.009 378.739 192.497 378.739 214.07C378.739 235.642 396.227 253.131 417.8 253.131Z" fill="#404040"/>
<path d="M417.8 223.643C423.087 223.643 427.374 219.357 427.374 214.07C427.374 208.782 423.087 204.496 417.8 204.496C412.513 204.496 408.226 208.782 408.226 214.07C408.226 219.357 412.513 223.643 417.8 223.643Z" fill="white"/>
<path d="M220.586 253.131C245.419 253.131 265.549 233 265.549 208.167C265.549 183.335 245.419 163.204 220.586 163.204C195.754 163.204 175.623 183.335 175.623 208.167C175.623 233 195.754 253.131 220.586 253.131Z" fill="#404040"/>
<path d="M220.586 219.188C226.673 219.188 231.607 214.254 231.607 208.167C231.607 202.081 226.673 197.147 220.586 197.147C214.5 197.147 209.566 202.081 209.566 208.167C209.566 214.254 214.5 219.188 220.586 219.188Z" fill="white"/>
<path d="M352.069 116.631L343.824 94.2363C343.394 93.0692 343.199 91.8288 343.248 90.5861C343.298 89.3433 343.592 88.1225 344.114 86.9934C344.635 85.8643 345.374 84.8489 346.288 84.0053C347.202 83.1617 348.273 82.5063 349.44 82.0766L373.078 73.3747C375.131 72.6185 377.314 72.2742 379.5 72.3614C381.687 72.4486 383.835 72.9657 385.822 73.8831C387.809 74.8005 389.595 76.1002 391.08 77.7081C392.565 79.316 393.718 81.2006 394.474 83.2542C395.156 85.0974 395.504 87.0473 395.502 89.0126C395.494 91.508 394.929 93.9702 393.849 96.22C392.77 98.4698 391.202 100.451 389.261 102.019C387.859 103.144 386.283 104.033 384.595 104.65L352.069 116.631Z" fill="#404040"/>
<path d="M395.155 89.0125C395.153 91.4571 394.603 93.8701 393.546 96.0741C392.488 98.2781 390.95 100.217 389.044 101.748C386.12 100.977 383.399 99.5781 381.071 97.6491C378.742 95.72 376.862 93.307 375.56 90.5778C374.258 87.8485 373.566 84.8684 373.532 81.8448C373.499 78.8211 374.124 75.8263 375.364 73.0687C377.746 72.5507 380.214 72.5728 382.586 73.1333C384.958 73.6937 387.175 74.7784 389.073 76.3075C390.971 77.8367 392.503 79.7716 393.555 81.9701C394.608 84.1686 395.154 86.575 395.155 89.0125Z" fill="#FF686B"/>
<path d="M184.997 173.62C190.367 173.62 194.719 168.335 194.719 161.815C194.719 155.295 190.367 150.01 184.997 150.01C179.628 150.01 175.276 155.295 175.276 161.815C175.276 168.335 179.628 173.62 184.997 173.62Z" fill="#FF686B"/>
<path d="M313.507 203.602H322.02L326.071 181.522L313.505 181.522L313.507 203.602Z" fill="#FFB8B8"/>
<path d="M311.335 200.823L328.101 200.822H328.101C329.505 200.822 330.894 201.098 332.19 201.635C333.487 202.172 334.664 202.959 335.657 203.951C336.649 204.943 337.436 206.121 337.973 207.418C338.51 208.714 338.786 210.103 338.786 211.506V211.854L311.335 211.855L311.335 200.823Z" fill="#2F2E41"/>
<path d="M323.388 194.54C323.289 194.54 323.19 194.535 323.09 194.525L311.308 193.667C310.831 193.623 310.371 193.47 309.964 193.22C309.556 192.97 309.21 192.63 308.955 192.225C308.699 191.821 308.54 191.363 308.489 190.887C308.439 190.411 308.498 189.93 308.663 189.481L324.43 154.055C324.543 153.74 324.589 153.404 324.566 153.069C324.542 152.735 324.45 152.409 324.294 152.112C324.139 151.811 323.922 151.547 323.657 151.336C323.393 151.126 323.086 150.974 322.759 150.89C315.344 148.952 296.321 143.791 279.853 137.753C272.798 135.166 268.354 131.427 266.646 126.641C264.394 120.331 267.726 114.576 267.869 114.335L267.981 114.145L283.476 115.554L300.275 116.983L337.088 136.723C340.173 138.392 342.516 141.16 343.651 144.479C344.786 147.797 344.629 151.421 343.212 154.628L326.24 192.688C325.994 193.239 325.594 193.707 325.088 194.036C324.582 194.364 323.992 194.539 323.388 194.54Z" fill="#2F2E41"/>
<path d="M286.171 45.4672C295.59 45.4672 303.226 37.8312 303.226 28.4116C303.226 18.9921 295.59 11.3561 286.171 11.3561C276.751 11.3561 269.115 18.9921 269.115 28.4116C269.115 37.8312 276.751 45.4672 286.171 45.4672Z" fill="#FFB8B8"/>
<path d="M308.646 205.685H317.159L321.21 183.605L308.644 183.606L308.646 205.685Z" fill="#FFB8B8"/>
<path d="M306.474 202.906L323.24 202.905H323.241C324.644 202.905 326.033 203.181 327.329 203.718C328.626 204.255 329.804 205.042 330.796 206.034C331.788 207.027 332.575 208.204 333.112 209.501C333.649 210.797 333.925 212.186 333.925 213.59V213.937L306.475 213.938L306.474 202.906Z" fill="#2F2E41"/>
<path d="M318.528 196.623C318.428 196.623 318.329 196.618 318.229 196.609L306.447 195.751C305.97 195.707 305.511 195.554 305.103 195.303C304.695 195.053 304.35 194.713 304.094 194.308C303.838 193.904 303.679 193.446 303.628 192.97C303.578 192.494 303.637 192.013 303.802 191.564L319.57 156.139C319.682 155.823 319.728 155.487 319.705 155.153C319.681 154.818 319.589 154.492 319.433 154.195C319.278 153.895 319.061 153.63 318.796 153.42C318.532 153.209 318.225 153.057 317.898 152.973C310.483 151.035 291.46 145.874 274.992 139.836C267.937 137.249 263.494 133.51 261.785 128.724C259.533 122.414 262.865 116.659 263.008 116.418L263.12 116.229L278.615 117.637L295.414 119.066L332.227 138.807C335.312 140.475 337.655 143.244 338.79 146.562C339.925 149.88 339.768 153.504 338.351 156.712L321.379 194.771C321.133 195.322 320.733 195.79 320.227 196.119C319.721 196.448 319.131 196.623 318.528 196.623Z" fill="#2F2E41"/>
<path d="M291.431 55.1384L273.376 48.8887C273.376 48.8887 262.042 57.5966 267.486 79.1989C270.329 90.3465 269.501 102.114 265.125 112.753C264.599 114.07 263.991 115.352 263.307 116.594C263.307 116.594 283.445 140.899 302.194 122.844L294.903 87.7759C294.903 87.7759 306.36 64.513 291.431 55.1384Z" fill="#FF686B"/>
<path d="M288.288 46.0473C285.861 42.4139 283.945 37.3757 286.618 33.9187C289.256 30.5062 294.459 31.0089 298.499 29.499C304.127 27.3958 307.391 20.7845 306.373 14.8637C305.355 8.94289 300.602 4.0347 294.94 2.02643C289.278 0.0181632 282.893 0.671299 277.348 2.98394C270.523 5.83084 264.667 11.338 262.212 18.314C259.757 25.2901 261.069 33.6662 266.163 39.0282C271.624 44.7768 280.194 46.3088 288.122 46.2158" fill="#2F2E41"/>
<path d="M272.423 15.0537C269.364 17.5438 264.697 16.4378 261.414 14.2525C258.13 12.0671 255.466 8.95527 251.914 7.24186C245.65 4.22119 238.078 6.22924 231.983 9.57517C225.887 12.9211 220.484 17.5436 214.045 20.1693C207.606 22.795 199.39 22.9248 194.515 17.9669C193.315 21.443 193.217 25.2046 194.234 28.7386C195.251 32.2725 197.334 35.4066 200.197 37.7132C203.061 40.0198 206.567 41.3867 210.237 41.6272C213.906 41.8677 217.561 40.9703 220.701 39.0573C227.756 34.7599 231.653 25.7497 239.566 23.3778C243.944 22.0653 248.646 23.1224 253.071 24.2674C257.497 25.4124 262.111 26.6496 266.577 25.6748C271.043 24.7001 275.221 20.6868 274.652 16.1511L272.423 15.0537Z" fill="#2F2E41"/>
<path d="M369.037 87.8335C368.588 86.8395 367.927 85.9561 367.1 85.2453C366.273 84.5346 365.3 84.0138 364.25 83.7198C363.2 83.4257 362.098 83.3655 361.022 83.5433C359.946 83.7212 358.922 84.1328 358.022 84.7492L291.726 69.8699L290.902 86.0719L356.328 95.6032C357.464 97.0459 359.089 98.022 360.896 98.3465C362.704 98.6709 364.567 98.3211 366.134 97.3634C367.7 96.4057 368.861 94.9066 369.396 93.1502C369.931 91.3938 369.804 89.502 369.037 87.8335Z" fill="#FFB8B8"/>
<path d="M303.35 71.3582L299.304 87.76C299.189 88.2267 298.974 88.6631 298.675 89.0395C298.376 89.4158 298 89.7233 297.571 89.941C297.143 90.1587 296.672 90.2815 296.192 90.301C295.712 90.3205 295.233 90.2362 294.788 90.0539L279.204 83.6671C276.818 83.0657 274.768 81.5425 273.504 79.4317C272.24 77.3209 271.865 74.7949 272.462 72.4079C273.058 70.021 274.577 67.968 276.685 66.6996C278.793 65.4312 281.318 65.0509 283.706 65.6421L300.419 67.2271C300.898 67.2727 301.361 67.4208 301.777 67.6614C302.193 67.9021 302.553 68.2295 302.831 68.6216C303.109 69.0136 303.299 69.461 303.389 69.9332C303.478 70.4055 303.465 70.8915 303.35 71.3581V71.3582Z" fill="#FF686B"/>
<path d="M361.379 100.706C364.063 100.706 366.24 98.5301 366.24 95.8455C366.24 93.1609 364.063 90.9846 361.379 90.9846C358.694 90.9846 356.518 93.1609 356.518 95.8455C356.518 98.5301 358.694 100.706 361.379 100.706Z" fill="#FF686B"/>
<path d="M576.641 253.478C576.64 253.662 576.567 253.838 576.437 253.968C576.307 254.098 576.13 254.172 575.946 254.172H1.66494C1.48076 254.172 1.30414 254.099 1.17391 253.969C1.04368 253.839 0.97052 253.662 0.97052 253.478C0.97052 253.294 1.04368 253.117 1.17391 252.987C1.30414 252.856 1.48076 252.783 1.66494 252.783H575.946C576.13 252.784 576.307 252.857 576.437 252.987C576.567 253.117 576.64 253.294 576.641 253.478Z" fill="#404040"/>
</g>
<defs>
<clipPath id="clip0_12_21">
<rect width="575.67" height="253.343" fill="white" transform="translate(0.97052 0.829346)"/>
</clipPath>
</defs>
</svg>
