<?xml version="1.0" standalone="no"?><svg xmlns="http://www.w3.org/2000/svg" viewBox="0 0 1440 320"><path fill="#0099ff" fill-opacity="1" d="M0,224L26.7,208C53.3,192,107,160,160,154.7C213.3,149,267,171,320,160C373.3,149,427,107,480,106.7C533.3,107,587,149,640,186.7C693.3,224,747,256,800,245.3C853.3,235,907,181,960,165.3C1013.3,149,1067,171,1120,181.3C1173.3,192,1227,192,1280,181.3C1333.3,171,1387,149,1413,138.7L1440,128L1440,0L1413.3,0C1386.7,0,1333,0,1280,0C1226.7,0,1173,0,1120,0C1066.7,0,1013,0,960,0C906.7,0,853,0,800,0C746.7,0,693,0,640,0C586.7,0,533,0,480,0C426.7,0,373,0,320,0C266.7,0,213,0,160,0C106.7,0,53,0,27,0L0,0Z"></path></svg>