<svg width="1920" height="271" viewBox="0 0 1920 271" fill="none" xmlns="http://www.w3.org/2000/svg">
<path d="M-279 220.4L-175.708 183.724C-72.4167 146.359 134.167 74.0406 340.75 55.1C547.333 36.1594 753.917 74.0406 960.5 82.65C1167.08 91.2594 1373.67 74.0406 1580.25 91.776C1786.83 110.2 1993.42 165.3 2096.71 192.85L2200 220.4V551H2096.71C1993.42 551 1786.83 551 1580.25 551C1373.67 551 1167.08 551 960.5 551C753.917 551 547.333 551 340.75 551C134.167 551 -72.4167 551 -175.708 551H-279V220.4Z" fill="#202020"/>
</svg>
